<svg width="46" height="46" viewBox="0 0 46 46" fill="none" xmlns="http://www.w3.org/2000/svg">
<circle cx="23" cy="23" r="21" fill="black"/>
<path fill-rule="evenodd" clip-rule="evenodd" d="M29.8074 13.531H26.5931C25.4578 13.531 25.2214 13.9961 25.2214 15.1698V18.0064H29.8074L29.3659 22.9859H25.2214V37.8606H19.2817V23.0486H16.1926V18.0064H19.2817V14.0357C19.2817 10.3091 21.275 8.36306 25.6948 8.36306H29.8074V13.531ZM23 0C10.297 0 0 10.297 0 23C0 35.703 10.297 46 23 46C35.7024 46 46 35.703 46 23C46 10.297 35.7024 0 23 0Z" fill="#FF8A65"/>
</svg>
