<svg width="46" height="46" viewBox="0 0 46 46" fill="none" xmlns="http://www.w3.org/2000/svg">
<circle cx="23" cy="23" r="21" fill="black"/>
<path fill-rule="evenodd" clip-rule="evenodd" d="M36.2691 15.1148C36.2691 12.2897 33.978 9.99925 31.1529 9.99925H17.1727V16.4488H16.1243V9.99925H15.5186C15.4784 9.99925 15.4394 10.0012 15.3998 10.0018V16.4488H14.3507V10.1347C14.0971 10.1941 13.8498 10.2721 13.6122 10.3673V16.4488H12.5637V10.9403C11.2566 11.8667 10.4024 13.3905 10.4024 15.1148V18.4748H18.6038C19.8043 17.2564 21.4724 16.4993 23.3182 16.4993C25.1646 16.4993 26.8327 17.2564 28.0338 18.4748H36.2684V15.1148H36.2691ZM23.3182 28.2172C26.1306 28.2172 28.4178 25.9299 28.4178 23.1176C28.4178 21.5919 27.7425 20.2208 26.6762 19.2849C26.3018 18.9578 25.8801 18.6837 25.4214 18.4748C24.7806 18.1834 24.0682 18.0192 23.3182 18.0192C22.5694 18.0192 21.857 18.1834 21.2156 18.4748C20.7575 18.6837 20.3352 18.9578 19.9614 19.2849C18.8951 20.2208 18.2198 21.5919 18.2198 23.1176C18.2198 25.9299 20.5071 28.2172 23.3182 28.2172V28.2172ZM36.2691 19.2849H28.7129C29.4828 20.3671 29.9377 21.689 29.9377 23.1176C29.9377 26.7733 26.9739 29.7371 23.3182 29.7371C19.6637 29.7371 16.6999 26.7733 16.6999 23.1176C16.6999 21.689 17.1542 20.3671 17.9247 19.2849H10.4024V30.8852C10.4024 33.7097 12.6934 36.0001 15.5186 36.0001H31.1529C33.9787 36.0001 36.2691 33.7097 36.2691 30.8852V19.2849ZM46 23C46 35.703 35.703 46 23 46C10.2983 46 0 35.703 0 23C0 10.297 10.2983 0 23 0C35.703 0 46 10.297 46 23V23ZM23.3354 26.8864C25.4169 26.8864 27.1036 25.1991 27.1036 23.1176C27.1036 21.0373 25.4169 19.35 23.3354 19.35C21.2539 19.35 19.5666 21.0373 19.5666 23.1176C19.5666 25.1991 21.2539 26.8864 23.3354 26.8864V26.8864ZM33.9308 12.9586V15.7857C33.9308 16.2386 33.5634 16.606 33.1098 16.606H30.3447C29.8911 16.606 29.5231 16.2386 29.5231 15.7857V12.9586C29.5231 12.5056 29.8911 12.1383 30.3447 12.1383H33.1098C33.5634 12.1383 33.9308 12.5056 33.9308 12.9586V12.9586Z" fill="#FF8A65"/>
</svg>
