<svg width="119" height="89" viewBox="0 0 119 89" fill="none" xmlns="http://www.w3.org/2000/svg">
<ellipse cx="56.8476" cy="45.5" rx="41.7017" ry="41.5" fill="#C4C4C4"/>
<path d="M36.5585 39.4432H33.6366L33.621 37.8339H36.0741C36.5064 37.8339 36.8606 37.7792 37.1366 37.6698C37.4127 37.5552 37.6184 37.3912 37.7538 37.1776C37.8945 36.9589 37.9648 36.6932 37.9648 36.3807C37.9648 36.0266 37.8971 35.7401 37.7616 35.5214C37.6314 35.3026 37.4257 35.1438 37.1445 35.0448C36.8684 34.9458 36.5116 34.8964 36.0741 34.8964H34.4491V44.4354H32.1054V33.0604H36.0741C36.7356 33.0604 37.3267 33.1229 37.8476 33.2479C38.3736 33.3729 38.8189 33.563 39.1835 33.8182C39.5481 34.0734 39.8267 34.3964 40.0195 34.787C40.2122 35.1724 40.3085 35.6307 40.3085 36.162C40.3085 36.6307 40.2017 37.063 39.9882 37.4589C39.7799 37.8547 39.4491 38.1776 38.996 38.4276C38.5481 38.6776 37.9622 38.8156 37.2382 38.8417L36.5585 39.4432ZM36.457 44.4354H32.996L33.9101 42.6073H36.457C36.8684 42.6073 37.2044 42.5422 37.4648 42.412C37.7252 42.2766 37.9179 42.0943 38.0429 41.8651C38.1679 41.6359 38.2304 41.3729 38.2304 41.076C38.2304 40.7427 38.1731 40.4537 38.0585 40.2089C37.9491 39.9641 37.7721 39.7766 37.5273 39.6464C37.2825 39.5109 36.9596 39.4432 36.5585 39.4432H34.3007L34.3163 37.8339H37.1288L37.6679 38.4667C38.3606 38.4563 38.9179 38.5787 39.3398 38.8339C39.7669 39.0839 40.0767 39.4094 40.2695 39.8104C40.4674 40.2115 40.5663 40.6412 40.5663 41.0995C40.5663 41.8287 40.4075 42.4432 40.0898 42.9432C39.7721 43.438 39.3059 43.8104 38.6913 44.0604C38.082 44.3104 37.3372 44.4354 36.457 44.4354ZM41.8241 40.2948V40.1307C41.8241 39.5109 41.9127 38.9406 42.0898 38.4198C42.2669 37.8938 42.5247 37.438 42.8632 37.0526C43.2017 36.6672 43.6184 36.3677 44.1132 36.1542C44.608 35.9354 45.1757 35.826 45.8163 35.826C46.457 35.826 47.0273 35.9354 47.5273 36.1542C48.0273 36.3677 48.4465 36.6672 48.7851 37.0526C49.1288 37.438 49.3892 37.8938 49.5663 38.4198C49.7434 38.9406 49.832 39.5109 49.832 40.1307V40.2948C49.832 40.9094 49.7434 41.4797 49.5663 42.0057C49.3892 42.5266 49.1288 42.9823 48.7851 43.3729C48.4465 43.7583 48.0299 44.0578 47.5351 44.2714C47.0403 44.4849 46.4726 44.5917 45.832 44.5917C45.1913 44.5917 44.621 44.4849 44.121 44.2714C43.6262 44.0578 43.207 43.7583 42.8632 43.3729C42.5247 42.9823 42.2669 42.5266 42.0898 42.0057C41.9127 41.4797 41.8241 40.9094 41.8241 40.2948ZM44.0741 40.1307V40.2948C44.0741 40.649 44.1054 40.9797 44.1679 41.287C44.2304 41.5943 44.3294 41.8651 44.4648 42.0995C44.6054 42.3287 44.7877 42.5083 45.0116 42.6385C45.2356 42.7688 45.509 42.8339 45.832 42.8339C46.1445 42.8339 46.4127 42.7688 46.6366 42.6385C46.8606 42.5083 47.0403 42.3287 47.1757 42.0995C47.3111 41.8651 47.4101 41.5943 47.4726 41.287C47.5403 40.9797 47.5741 40.649 47.5741 40.2948V40.1307C47.5741 39.787 47.5403 39.4641 47.4726 39.162C47.4101 38.8547 47.3085 38.5839 47.1679 38.3495C47.0325 38.1099 46.8528 37.9224 46.6288 37.787C46.4049 37.6516 46.134 37.5839 45.8163 37.5839C45.4986 37.5839 45.2278 37.6516 45.0038 37.787C44.7851 37.9224 44.6054 38.1099 44.4648 38.3495C44.3294 38.5839 44.2304 38.8547 44.1679 39.162C44.1054 39.4641 44.0741 39.787 44.0741 40.1307ZM53.4648 37.826V44.4354H51.2148V35.9823H53.332L53.4648 37.826ZM56.0116 35.9276L55.9726 38.0135C55.8632 37.9979 55.7304 37.9849 55.5741 37.9745C55.4231 37.9589 55.2851 37.951 55.1601 37.951C54.8424 37.951 54.5663 37.9927 54.332 38.076C54.1028 38.1542 53.9101 38.2714 53.7538 38.4276C53.6028 38.5839 53.4882 38.774 53.4101 38.9979C53.3372 39.2219 53.2955 39.4771 53.2851 39.7635L52.832 39.6229C52.832 39.076 52.8866 38.5734 52.996 38.1151C53.1054 37.6516 53.2642 37.2479 53.4726 36.9042C53.6861 36.5604 53.9465 36.2948 54.2538 36.1073C54.5611 35.9198 54.9127 35.826 55.3085 35.826C55.4335 35.826 55.5611 35.8365 55.6913 35.8573C55.8215 35.8729 55.9283 35.8964 56.0116 35.9276ZM59.3241 37.826V44.4354H57.0741V35.9823H59.1913L59.3241 37.826ZM61.871 35.9276L61.832 38.0135C61.7226 37.9979 61.5898 37.9849 61.4335 37.9745C61.2825 37.9589 61.1445 37.951 61.0195 37.951C60.7017 37.951 60.4257 37.9927 60.1913 38.076C59.9622 38.1542 59.7695 38.2714 59.6132 38.4276C59.4622 38.5839 59.3476 38.774 59.2695 38.9979C59.1965 39.2219 59.1549 39.4771 59.1445 39.7635L58.6913 39.6229C58.6913 39.076 58.746 38.5734 58.8554 38.1151C58.9648 37.6516 59.1236 37.2479 59.332 36.9042C59.5455 36.5604 59.8059 36.2948 60.1132 36.1073C60.4205 35.9198 60.7721 35.826 61.1679 35.826C61.2929 35.826 61.4205 35.8365 61.5507 35.8573C61.6809 35.8729 61.7877 35.8964 61.871 35.9276ZM62.3398 40.2948V40.1307C62.3398 39.5109 62.4283 38.9406 62.6054 38.4198C62.7825 37.8938 63.0403 37.438 63.3788 37.0526C63.7174 36.6672 64.134 36.3677 64.6288 36.1542C65.1236 35.9354 65.6913 35.826 66.332 35.826C66.9726 35.826 67.5429 35.9354 68.0429 36.1542C68.5429 36.3677 68.9622 36.6672 69.3007 37.0526C69.6445 37.438 69.9049 37.8938 70.082 38.4198C70.259 38.9406 70.3476 39.5109 70.3476 40.1307V40.2948C70.3476 40.9094 70.259 41.4797 70.082 42.0057C69.9049 42.5266 69.6445 42.9823 69.3007 43.3729C68.9622 43.7583 68.5455 44.0578 68.0507 44.2714C67.5559 44.4849 66.9882 44.5917 66.3476 44.5917C65.707 44.5917 65.1366 44.4849 64.6366 44.2714C64.1419 44.0578 63.7226 43.7583 63.3788 43.3729C63.0403 42.9823 62.7825 42.5266 62.6054 42.0057C62.4283 41.4797 62.3398 40.9094 62.3398 40.2948ZM64.5898 40.1307V40.2948C64.5898 40.649 64.621 40.9797 64.6835 41.287C64.746 41.5943 64.845 41.8651 64.9804 42.0995C65.121 42.3287 65.3033 42.5083 65.5273 42.6385C65.7512 42.7688 66.0247 42.8339 66.3476 42.8339C66.6601 42.8339 66.9283 42.7688 67.1523 42.6385C67.3762 42.5083 67.5559 42.3287 67.6913 42.0995C67.8267 41.8651 67.9257 41.5943 67.9882 41.287C68.0559 40.9797 68.0898 40.649 68.0898 40.2948V40.1307C68.0898 39.787 68.0559 39.4641 67.9882 39.162C67.9257 38.8547 67.8241 38.5839 67.6835 38.3495C67.5481 38.1099 67.3684 37.9224 67.1445 37.787C66.9205 37.6516 66.6497 37.5839 66.332 37.5839C66.0142 37.5839 65.7434 37.6516 65.5195 37.787C65.3007 37.9224 65.121 38.1099 64.9804 38.3495C64.845 38.5839 64.746 38.8547 64.6835 39.162C64.621 39.4641 64.5898 39.787 64.5898 40.1307ZM74.1445 42.2479L75.9023 35.9823H77.332L76.871 38.4432L75.1132 44.4354H73.9179L74.1445 42.2479ZM73.2538 35.9823L74.5116 42.2401L74.6288 44.4354H73.2226L71.082 35.9823H73.2538ZM78.9413 42.1385L80.1679 35.9823H82.3476L80.207 44.4354H78.8085L78.9413 42.1385ZM77.5273 35.9823L79.2773 42.201L79.5195 44.4354H78.3163L76.5585 38.451L76.1132 35.9823H77.5273ZM49.8788 58.4432H46.957L46.9413 56.8339H49.3945C49.8267 56.8339 50.1809 56.7792 50.457 56.6698C50.733 56.5552 50.9387 56.3912 51.0741 56.1776C51.2148 55.9589 51.2851 55.6932 51.2851 55.3807C51.2851 55.0266 51.2174 54.7401 51.082 54.5214C50.9517 54.3026 50.746 54.1438 50.4648 54.0448C50.1887 53.9458 49.832 53.8964 49.3945 53.8964H47.7695V63.4354H45.4257V52.0604H49.3945C50.0559 52.0604 50.6471 52.1229 51.1679 52.2479C51.6939 52.3729 52.1392 52.563 52.5038 52.8182C52.8684 53.0734 53.1471 53.3964 53.3398 53.787C53.5325 54.1724 53.6288 54.6307 53.6288 55.162C53.6288 55.6307 53.5221 56.063 53.3085 56.4589C53.1002 56.8547 52.7695 57.1776 52.3163 57.4276C51.8684 57.6776 51.2825 57.8156 50.5585 57.8417L49.8788 58.4432ZM49.7773 63.4354H46.3163L47.2304 61.6073H49.7773C50.1887 61.6073 50.5247 61.5422 50.7851 61.412C51.0455 61.2766 51.2382 61.0943 51.3632 60.8651C51.4882 60.6359 51.5507 60.3729 51.5507 60.076C51.5507 59.7427 51.4934 59.4537 51.3788 59.2089C51.2695 58.9641 51.0924 58.7766 50.8476 58.6464C50.6028 58.5109 50.2799 58.4432 49.8788 58.4432H47.621L47.6366 56.8339H50.4491L50.9882 57.4667C51.6809 57.4563 52.2382 57.5787 52.6601 57.8339C53.0872 58.0839 53.3971 58.4094 53.5898 58.8104C53.7877 59.2115 53.8866 59.6412 53.8866 60.0995C53.8866 60.8287 53.7278 61.4432 53.4101 61.9432C53.0924 62.438 52.6262 62.8104 52.0116 63.0604C51.4023 63.3104 50.6575 63.4354 49.7773 63.4354ZM57.7538 56.826V63.4354H55.5038V54.9823H57.621L57.7538 56.826ZM60.3007 54.9276L60.2616 57.0135C60.1523 56.9979 60.0195 56.9849 59.8632 56.9745C59.7122 56.9589 59.5741 56.951 59.4491 56.951C59.1314 56.951 58.8554 56.9927 58.621 57.076C58.3919 57.1542 58.1991 57.2714 58.0429 57.4276C57.8919 57.5839 57.7773 57.774 57.6991 57.9979C57.6262 58.2219 57.5846 58.4771 57.5741 58.7635L57.121 58.6229C57.121 58.076 57.1757 57.5734 57.2851 57.1151C57.3945 56.6516 57.5533 56.2479 57.7616 55.9042C57.9752 55.5604 58.2356 55.2948 58.5429 55.1073C58.8502 54.9198 59.2017 54.826 59.5976 54.826C59.7226 54.826 59.8502 54.8365 59.9804 54.8573C60.1106 54.8729 60.2174 54.8964 60.3007 54.9276ZM60.7695 59.2948V59.1307C60.7695 58.5109 60.858 57.9406 61.0351 57.4198C61.2122 56.8938 61.47 56.438 61.8085 56.0526C62.1471 55.6672 62.5637 55.3677 63.0585 55.1542C63.5533 54.9354 64.121 54.826 64.7616 54.826C65.4023 54.826 65.9726 54.9354 66.4726 55.1542C66.9726 55.3677 67.3919 55.6672 67.7304 56.0526C68.0741 56.438 68.3346 56.8938 68.5116 57.4198C68.6887 57.9406 68.7773 58.5109 68.7773 59.1307V59.2948C68.7773 59.9094 68.6887 60.4797 68.5116 61.0057C68.3346 61.5266 68.0741 61.9823 67.7304 62.3729C67.3919 62.7583 66.9752 63.0578 66.4804 63.2714C65.9856 63.4849 65.4179 63.5917 64.7773 63.5917C64.1366 63.5917 63.5663 63.4849 63.0663 63.2714C62.5715 63.0578 62.1523 62.7583 61.8085 62.3729C61.47 61.9823 61.2122 61.5266 61.0351 61.0057C60.858 60.4797 60.7695 59.9094 60.7695 59.2948ZM63.0195 59.1307V59.2948C63.0195 59.649 63.0507 59.9797 63.1132 60.287C63.1757 60.5943 63.2747 60.8651 63.4101 61.0995C63.5507 61.3287 63.733 61.5083 63.957 61.6385C64.1809 61.7688 64.4544 61.8339 64.7773 61.8339C65.0898 61.8339 65.358 61.7688 65.582 61.6385C65.8059 61.5083 65.9856 61.3287 66.121 61.0995C66.2564 60.8651 66.3554 60.5943 66.4179 60.287C66.4856 59.9797 66.5195 59.649 66.5195 59.2948V59.1307C66.5195 58.787 66.4856 58.4641 66.4179 58.162C66.3554 57.8547 66.2538 57.5839 66.1132 57.3495C65.9778 57.1099 65.7981 56.9224 65.5741 56.787C65.3502 56.6516 65.0794 56.5839 64.7616 56.5839C64.4439 56.5839 64.1731 56.6516 63.9491 56.787C63.7304 56.9224 63.5507 57.1099 63.4101 57.3495C63.2747 57.5839 63.1757 57.8547 63.1132 58.162C63.0507 58.4641 63.0195 58.787 63.0195 59.1307Z" fill="black"/>
</svg>
