<svg width="119" height="89" viewBox="0 0 119 89" fill="none" xmlns="http://www.w3.org/2000/svg">
<ellipse cx="56.8477" cy="45.5" rx="41.7017" ry="41.5" fill="#C4C4C4"/>
<path d="M36.5586 39.4432H33.6368L33.6211 37.8339H36.0743C36.5066 37.8339 36.8607 37.7792 37.1368 37.6698C37.4128 37.5552 37.6185 37.3912 37.754 37.1776C37.8946 36.9589 37.9649 36.6932 37.9649 36.3807C37.9649 36.0266 37.8972 35.7401 37.7618 35.5214C37.6316 35.3026 37.4258 35.1438 37.1446 35.0448C36.8685 34.9458 36.5118 34.8964 36.0743 34.8964H34.4493V44.4354H32.1055V33.0604H36.0743C36.7357 33.0604 37.3269 33.1229 37.8477 33.2479C38.3737 33.3729 38.8191 33.563 39.1836 33.8182C39.5482 34.0734 39.8269 34.3964 40.0196 34.787C40.2123 35.1724 40.3086 35.6307 40.3086 36.162C40.3086 36.6307 40.2019 37.063 39.9883 37.4589C39.78 37.8547 39.4493 38.1776 38.9961 38.4276C38.5482 38.6776 37.9623 38.8156 37.2383 38.8417L36.5586 39.4432ZM36.4571 44.4354H32.9961L33.9102 42.6073H36.4571C36.8685 42.6073 37.2045 42.5422 37.4649 42.412C37.7253 42.2766 37.918 42.0943 38.043 41.8651C38.168 41.6359 38.2305 41.3729 38.2305 41.076C38.2305 40.7427 38.1732 40.4537 38.0586 40.2089C37.9493 39.9641 37.7722 39.7766 37.5274 39.6464C37.2826 39.5109 36.9597 39.4432 36.5586 39.4432H34.3008L34.3165 37.8339H37.129L37.668 38.4667C38.3607 38.4563 38.918 38.5787 39.3399 38.8339C39.767 39.0839 40.0769 39.4094 40.2696 39.8104C40.4675 40.2115 40.5665 40.6412 40.5665 41.0995C40.5665 41.8287 40.4076 42.4432 40.0899 42.9432C39.7722 43.438 39.306 43.8104 38.6915 44.0604C38.0821 44.3104 37.3373 44.4354 36.4571 44.4354ZM41.8243 40.2948V40.1307C41.8243 39.5109 41.9128 38.9406 42.0899 38.4198C42.267 37.8938 42.5248 37.438 42.8633 37.0526C43.2019 36.6672 43.6185 36.3677 44.1133 36.1542C44.6081 35.9354 45.1758 35.826 45.8165 35.826C46.4571 35.826 47.0274 35.9354 47.5274 36.1542C48.0274 36.3677 48.4467 36.6672 48.7852 37.0526C49.129 37.438 49.3894 37.8938 49.5665 38.4198C49.7435 38.9406 49.8321 39.5109 49.8321 40.1307V40.2948C49.8321 40.9094 49.7435 41.4797 49.5665 42.0057C49.3894 42.5266 49.129 42.9823 48.7852 43.3729C48.4467 43.7583 48.03 44.0578 47.5352 44.2714C47.0404 44.4849 46.4727 44.5917 45.8321 44.5917C45.1915 44.5917 44.6211 44.4849 44.1211 44.2714C43.6263 44.0578 43.2071 43.7583 42.8633 43.3729C42.5248 42.9823 42.267 42.5266 42.0899 42.0057C41.9128 41.4797 41.8243 40.9094 41.8243 40.2948ZM44.0743 40.1307V40.2948C44.0743 40.649 44.1055 40.9797 44.168 41.287C44.2305 41.5943 44.3295 41.8651 44.4649 42.0995C44.6055 42.3287 44.7878 42.5083 45.0118 42.6385C45.2357 42.7688 45.5092 42.8339 45.8321 42.8339C46.1446 42.8339 46.4128 42.7688 46.6368 42.6385C46.8607 42.5083 47.0404 42.3287 47.1758 42.0995C47.3112 41.8651 47.4102 41.5943 47.4727 41.287C47.5404 40.9797 47.5743 40.649 47.5743 40.2948V40.1307C47.5743 39.787 47.5404 39.4641 47.4727 39.162C47.4102 38.8547 47.3086 38.5839 47.168 38.3495C47.0326 38.1099 46.8529 37.9224 46.629 37.787C46.405 37.6516 46.1342 37.5839 45.8165 37.5839C45.4987 37.5839 45.2279 37.6516 45.004 37.787C44.7852 37.9224 44.6055 38.1099 44.4649 38.3495C44.3295 38.5839 44.2305 38.8547 44.168 39.162C44.1055 39.4641 44.0743 39.787 44.0743 40.1307ZM53.4649 37.826V44.4354H51.2149V35.9823H53.3321L53.4649 37.826ZM56.0118 35.9276L55.9727 38.0135C55.8633 37.9979 55.7305 37.9849 55.5743 37.9745C55.4232 37.9589 55.2852 37.951 55.1602 37.951C54.8425 37.951 54.5665 37.9927 54.3321 38.076C54.1029 38.1542 53.9102 38.2714 53.754 38.4276C53.6029 38.5839 53.4883 38.774 53.4102 38.9979C53.3373 39.2219 53.2956 39.4771 53.2852 39.7635L52.8321 39.6229C52.8321 39.076 52.8868 38.5734 52.9961 38.1151C53.1055 37.6516 53.2644 37.2479 53.4727 36.9042C53.6862 36.5604 53.9467 36.2948 54.254 36.1073C54.5612 35.9198 54.9128 35.826 55.3086 35.826C55.4336 35.826 55.5612 35.8365 55.6915 35.8573C55.8217 35.8729 55.9284 35.8964 56.0118 35.9276ZM59.3243 37.826V44.4354H57.0743V35.9823H59.1915L59.3243 37.826ZM61.8711 35.9276L61.8321 38.0135C61.7227 37.9979 61.5899 37.9849 61.4336 37.9745C61.2826 37.9589 61.1446 37.951 61.0196 37.951C60.7019 37.951 60.4258 37.9927 60.1915 38.076C59.9623 38.1542 59.7696 38.2714 59.6133 38.4276C59.4623 38.5839 59.3477 38.774 59.2696 38.9979C59.1967 39.2219 59.155 39.4771 59.1446 39.7635L58.6915 39.6229C58.6915 39.076 58.7461 38.5734 58.8555 38.1151C58.9649 37.6516 59.1237 37.2479 59.3321 36.9042C59.5456 36.5604 59.806 36.2948 60.1133 36.1073C60.4206 35.9198 60.7722 35.826 61.168 35.826C61.293 35.826 61.4206 35.8365 61.5508 35.8573C61.681 35.8729 61.7878 35.8964 61.8711 35.9276ZM62.3399 40.2948V40.1307C62.3399 39.5109 62.4284 38.9406 62.6055 38.4198C62.7826 37.8938 63.0404 37.438 63.379 37.0526C63.7175 36.6672 64.1342 36.3677 64.629 36.1542C65.1237 35.9354 65.6915 35.826 66.3321 35.826C66.9727 35.826 67.543 35.9354 68.043 36.1542C68.543 36.3677 68.9623 36.6672 69.3008 37.0526C69.6446 37.438 69.905 37.8938 70.0821 38.4198C70.2592 38.9406 70.3477 39.5109 70.3477 40.1307V40.2948C70.3477 40.9094 70.2592 41.4797 70.0821 42.0057C69.905 42.5266 69.6446 42.9823 69.3008 43.3729C68.9623 43.7583 68.5456 44.0578 68.0508 44.2714C67.556 44.4849 66.9883 44.5917 66.3477 44.5917C65.7071 44.5917 65.1368 44.4849 64.6368 44.2714C64.142 44.0578 63.7227 43.7583 63.379 43.3729C63.0404 42.9823 62.7826 42.5266 62.6055 42.0057C62.4284 41.4797 62.3399 40.9094 62.3399 40.2948ZM64.5899 40.1307V40.2948C64.5899 40.649 64.6211 40.9797 64.6836 41.287C64.7461 41.5943 64.8451 41.8651 64.9805 42.0995C65.1211 42.3287 65.3034 42.5083 65.5274 42.6385C65.7513 42.7688 66.0248 42.8339 66.3477 42.8339C66.6602 42.8339 66.9284 42.7688 67.1524 42.6385C67.3763 42.5083 67.556 42.3287 67.6915 42.0995C67.8269 41.8651 67.9258 41.5943 67.9883 41.287C68.056 40.9797 68.0899 40.649 68.0899 40.2948V40.1307C68.0899 39.787 68.056 39.4641 67.9883 39.162C67.9258 38.8547 67.8243 38.5839 67.6836 38.3495C67.5482 38.1099 67.3685 37.9224 67.1446 37.787C66.9206 37.6516 66.6498 37.5839 66.3321 37.5839C66.0144 37.5839 65.7435 37.6516 65.5196 37.787C65.3008 37.9224 65.1211 38.1099 64.9805 38.3495C64.8451 38.5839 64.7461 38.8547 64.6836 39.162C64.6211 39.4641 64.5899 39.787 64.5899 40.1307ZM74.1446 42.2479L75.9024 35.9823H77.3321L76.8711 38.4432L75.1133 44.4354H73.918L74.1446 42.2479ZM73.254 35.9823L74.5118 42.2401L74.629 44.4354H73.2227L71.0821 35.9823H73.254ZM78.9415 42.1385L80.168 35.9823H82.3477L80.2071 44.4354H78.8086L78.9415 42.1385ZM77.5274 35.9823L79.2774 42.201L79.5196 44.4354H78.3165L76.5586 38.451L76.1133 35.9823H77.5274ZM49.879 58.4432H46.9571L46.9415 56.8339H49.3946C49.8269 56.8339 50.181 56.7792 50.4571 56.6698C50.7331 56.5552 50.9388 56.3912 51.0743 56.1776C51.2149 55.9589 51.2852 55.6932 51.2852 55.3807C51.2852 55.0266 51.2175 54.7401 51.0821 54.5214C50.9519 54.3026 50.7461 54.1438 50.4649 54.0448C50.1888 53.9458 49.8321 53.8964 49.3946 53.8964H47.7696V63.4354H45.4258V52.0604H49.3946C50.056 52.0604 50.6472 52.1229 51.168 52.2479C51.6941 52.3729 52.1394 52.563 52.504 52.8182C52.8685 53.0734 53.1472 53.3964 53.3399 53.787C53.5326 54.1724 53.629 54.6307 53.629 55.162C53.629 55.6307 53.5222 56.063 53.3086 56.4589C53.1003 56.8547 52.7696 57.1776 52.3165 57.4276C51.8685 57.6776 51.2826 57.8156 50.5586 57.8417L49.879 58.4432ZM49.7774 63.4354H46.3165L47.2305 61.6073H49.7774C50.1888 61.6073 50.5248 61.5422 50.7852 61.412C51.0456 61.2766 51.2383 61.0943 51.3633 60.8651C51.4883 60.6359 51.5508 60.3729 51.5508 60.076C51.5508 59.7427 51.4935 59.4537 51.379 59.2089C51.2696 58.9641 51.0925 58.7766 50.8477 58.6464C50.6029 58.5109 50.28 58.4432 49.879 58.4432H47.6211L47.6368 56.8339H50.4493L50.9883 57.4667C51.681 57.4563 52.2383 57.5787 52.6602 57.8339C53.0873 58.0839 53.3972 58.4094 53.5899 58.8104C53.7878 59.2115 53.8868 59.6412 53.8868 60.0995C53.8868 60.8287 53.7279 61.4432 53.4102 61.9432C53.0925 62.438 52.6263 62.8104 52.0118 63.0604C51.4024 63.3104 50.6576 63.4354 49.7774 63.4354ZM57.754 56.826V63.4354H55.504V54.9823H57.6211L57.754 56.826ZM60.3008 54.9276L60.2618 57.0135C60.1524 56.9979 60.0196 56.9849 59.8633 56.9745C59.7123 56.9589 59.5743 56.951 59.4493 56.951C59.1316 56.951 58.8555 56.9927 58.6211 57.076C58.392 57.1542 58.1993 57.2714 58.043 57.4276C57.892 57.5839 57.7774 57.774 57.6993 57.9979C57.6263 58.2219 57.5847 58.4771 57.5743 58.7635L57.1211 58.6229C57.1211 58.076 57.1758 57.5734 57.2852 57.1151C57.3946 56.6516 57.5534 56.2479 57.7618 55.9042C57.9753 55.5604 58.2357 55.2948 58.543 55.1073C58.8503 54.9198 59.2019 54.826 59.5977 54.826C59.7227 54.826 59.8503 54.8365 59.9805 54.8573C60.1107 54.8729 60.2175 54.8964 60.3008 54.9276ZM60.7696 59.2948V59.1307C60.7696 58.5109 60.8581 57.9406 61.0352 57.4198C61.2123 56.8938 61.4701 56.438 61.8086 56.0526C62.1472 55.6672 62.5638 55.3677 63.0586 55.1542C63.5534 54.9354 64.1211 54.826 64.7618 54.826C65.4024 54.826 65.9727 54.9354 66.4727 55.1542C66.9727 55.3677 67.392 55.6672 67.7305 56.0526C68.0743 56.438 68.3347 56.8938 68.5118 57.4198C68.6888 57.9406 68.7774 58.5109 68.7774 59.1307V59.2948C68.7774 59.9094 68.6888 60.4797 68.5118 61.0057C68.3347 61.5266 68.0743 61.9823 67.7305 62.3729C67.392 62.7583 66.9753 63.0578 66.4805 63.2714C65.9857 63.4849 65.418 63.5917 64.7774 63.5917C64.1368 63.5917 63.5665 63.4849 63.0665 63.2714C62.5717 63.0578 62.1524 62.7583 61.8086 62.3729C61.4701 61.9823 61.2123 61.5266 61.0352 61.0057C60.8581 60.4797 60.7696 59.9094 60.7696 59.2948ZM63.0196 59.1307V59.2948C63.0196 59.649 63.0508 59.9797 63.1133 60.287C63.1758 60.5943 63.2748 60.8651 63.4102 61.0995C63.5508 61.3287 63.7331 61.5083 63.9571 61.6385C64.181 61.7688 64.4545 61.8339 64.7774 61.8339C65.0899 61.8339 65.3581 61.7688 65.5821 61.6385C65.806 61.5083 65.9857 61.3287 66.1211 61.0995C66.2566 60.8651 66.3555 60.5943 66.418 60.287C66.4857 59.9797 66.5196 59.649 66.5196 59.2948V59.1307C66.5196 58.787 66.4857 58.4641 66.418 58.162C66.3555 57.8547 66.254 57.5839 66.1133 57.3495C65.9779 57.1099 65.7982 56.9224 65.5743 56.787C65.3503 56.6516 65.0795 56.5839 64.7618 56.5839C64.4441 56.5839 64.1732 56.6516 63.9493 56.787C63.7305 56.9224 63.5508 57.1099 63.4102 57.3495C63.2748 57.5839 63.1758 57.8547 63.1133 58.162C63.0508 58.4641 63.0196 58.787 63.0196 59.1307Z" fill="black"/>
</svg>
