<svg width="46" height="46" viewBox="0 0 46 46" fill="none" xmlns="http://www.w3.org/2000/svg">
<circle cx="23" cy="23" r="21" fill="black"/>
<path fill-rule="evenodd" clip-rule="evenodd" d="M34.5671 19.037C34.9038 26.5401 29.309 34.9057 19.4043 34.9057C16.392 34.9057 13.5879 34.0221 11.2272 32.5086C14.0568 32.8421 16.882 32.0575 19.1245 30.2993C16.7906 30.2565 14.8203 28.7142 14.1418 26.595C14.9775 26.7548 15.7997 26.7081 16.5504 26.5043C13.9846 25.9881 12.2143 23.6772 12.2718 21.206C12.9912 21.6053 13.8141 21.8455 14.6887 21.8724C12.3127 20.2854 11.6399 17.1484 13.0378 14.7507C15.6681 17.9783 19.5986 20.102 24.0324 20.325C23.2549 16.9874 25.7862 13.7744 29.2292 13.7744C30.7638 13.7744 32.1502 14.4216 33.1226 15.4586C34.3377 15.2196 35.4794 14.7756 36.5099 14.1642C36.1119 15.41 35.266 16.4559 34.1646 17.1152C35.2437 16.9868 36.2716 16.6999 37.2287 16.2757C36.5138 17.3458 35.6091 18.285 34.5671 19.037M23 0C10.2976 0 0 10.297 0 23C0 35.703 10.2976 46 23 46C35.7024 46 46 35.703 46 23C46 10.297 35.7024 0 23 0" fill="#FF8A65"/>
</svg>
