<svg width="46" height="46" viewBox="0 0 46 46" fill="none" xmlns="http://www.w3.org/2000/svg">
<circle cx="23" cy="23" r="21" fill="black"/>
<path fill-rule="evenodd" clip-rule="evenodd" d="M35.6673 33.5267C35.6673 35.4695 34.0931 37.043 32.151 37.043H14.0721C12.1293 37.043 10.5552 35.4695 10.5552 33.5267V24.6422C10.5552 22.6994 12.1293 21.124 14.0721 21.124H32.151C34.0931 21.124 35.6673 22.6994 35.6673 24.6422V33.5267ZM15.9786 8.06408L17.1702 12.5337L18.2772 8.06408H20.0312L18.0211 14.7109V19.2466H16.2938V14.7109L14.2392 8.06408H15.9786ZM22.2008 10.929C23.4445 10.929 24.4054 11.8543 24.4054 13.1463V17.1895C24.4054 18.5755 23.4344 19.3998 22.2008 19.3998C20.7138 19.3998 19.9524 18.6429 19.9524 17.1895V13.1463C19.9524 11.8225 20.8491 10.929 22.2008 10.929V10.929ZM25.7076 10.997H27.2417V17.3217C27.2417 17.6534 27.3211 17.8771 27.6503 17.8771C27.949 17.8771 28.3653 17.4932 28.5528 17.2587V10.9983H30.0856V19.2466H28.5528V18.3366C27.8874 19.1253 27.243 19.3661 26.779 19.3661C25.9573 19.3661 25.7076 18.7077 25.7076 17.8923V10.997ZM22.9984 0C10.2971 0 0 10.2979 0 23.0006C0 35.7027 10.2971 46 22.9984 46C35.7022 46 46 35.7027 46 23.0006C46 10.2979 35.7022 0 22.9984 0V0ZM31.8517 29.4467H30.561V28.6523C30.561 28.1115 30.6728 27.7308 31.2136 27.7308C31.7373 27.7308 31.8517 28.1197 31.8517 28.6523V29.4467ZM31.2759 26.3555C29.9579 26.3555 29.058 27.3018 29.058 28.6669V32.1928C29.058 33.6074 29.7704 34.6236 31.1653 34.6236C32.7045 34.6236 33.3547 33.7066 33.3547 32.1928V31.6024H31.8517V32.1483C31.8517 32.8327 31.8155 33.2477 31.199 33.2477C30.6105 33.2477 30.561 32.7387 30.561 32.1483V30.6662H33.3547V28.6669C33.3547 27.2459 32.6772 26.3555 31.2759 26.3555V26.3555ZM18.1825 25.3057H16.4813V34.4107H14.8366V25.3057H13.1334V23.7594H18.1825V25.3057ZM20.8714 26.5544H22.3324V34.4107H20.8714V33.5432C20.6019 33.8623 20.3217 34.1063 20.0312 34.2734C19.2438 34.7247 18.1628 34.7151 18.1628 33.1206V26.5544H19.6239V32.576C19.6239 32.8925 19.7008 33.106 20.0122 33.106C20.2962 33.106 20.6934 32.7412 20.8714 32.5175V26.5544ZM21.5317 17.1196V13.2817C21.5317 12.8305 21.7401 12.4949 22.171 12.4949C22.6413 12.4949 22.8421 12.8203 22.8421 13.2817V17.1196C22.8421 17.5689 22.6139 17.9006 22.2008 17.9006C21.7776 17.9006 21.5317 17.5543 21.5317 17.1196V17.1196ZM26.4524 32.5696C26.4524 32.82 26.4105 32.9999 26.3247 33.1111C26.1645 33.3221 25.8156 33.3119 25.5786 33.1912C25.4667 33.1359 25.3517 33.0424 25.2322 32.9147V28.0193C25.3314 27.9113 25.4311 27.8312 25.5341 27.7797C25.7896 27.6507 26.12 27.6755 26.2961 27.9087C26.399 28.0454 26.4524 28.2468 26.4524 28.5118V32.5696ZM26.5306 26.4547C26.0094 26.4547 25.5614 26.787 25.2322 27.1887V23.7594H23.7572V34.4107H25.2322V33.807C25.6396 34.3147 26.0851 34.5099 26.6202 34.5099C27.5919 34.5099 27.9554 33.7542 27.9554 32.7832V28.4241C27.9554 27.359 27.6008 26.4547 26.5306 26.4547V26.4547Z" fill="#FF8A65"/>
</svg>
